# xmcd
#
# Track frame offsets:
# 150
# 16532
# 36005
# 51837
# 73475
# 92847
# 102237
# 117797
# 139212
# 155630
#
# Disc length: 2708 seconds
#
#
# Revision: 1
# Processed by: cddbd v1.5.1PL0 Copyright (c) Steve Scherf et al.
# Submitted via: FreeRIP 2.91 
#
DISCID=840a920a
DTITLE=Steve Cole - NY LA
DYEAR=2003
DGENRE=Jazz
TTITLE0=NY LA
TTITLE1=Everyday
TTITLE2=Tonight It's On (featuring Mauli B. and Charlean Hines)
TTITLE3=Love Letter
TTITLE4=Off Broadway
TTITLE5=Interlude IV
TTITLE6=Every Little Thing (featuring Mauli B.)
TTITLE7=Missing You
TTITLE8=Close Your Eyes, Free Your Mind
TTITLE9=Keep It Live (featuring Brevi and Aloe Blacc)
EXTD=YEAR: 2003
EXTT0=
EXTT1=
EXTT2=
EXTT3=
EXTT4=
EXTT5=
EXTT6=
EXTT7=
EXTT8=
EXTT9=
PLAYORDER=
